<svg width="175" height="58" viewBox="0 0 175 58" fill="none" xmlns="http://www.w3.org/2000/svg">
<path d="M174.262 9.22538C171.32 7.98453 168.325 7.01797 165.29 6.2604C162.269 5.46364 159.208 4.902 156.134 4.51015C154.603 4.27504 153.047 4.22279 151.516 4.03993C149.972 4.00075 148.442 3.84401 146.898 3.90931C146.133 3.92238 145.355 3.92238 144.59 3.90931C143.824 3.90931 143.046 3.98768 142.281 4.01381C141.515 4.06605 140.737 4.07912 139.972 4.15749L137.676 4.43178C134.602 4.67995 131.62 5.3069 128.639 6.07754C125.617 6.79593 122.754 7.81473 119.707 8.83354C116.58 9.8654 113.189 10.4924 109.785 10.0221C108.109 9.74785 106.421 9.16008 105.088 8.11515C103.729 7.08328 102.806 5.67263 102.238 4.19667C103.175 5.48977 104.336 6.54776 105.669 7.20084C107.001 7.85392 108.466 8.12821 109.93 8.11515C112.885 8.11515 115.814 7.17471 118.585 5.99917C121.408 4.66689 124.509 3.49134 127.596 2.52479C130.71 1.59741 133.956 0.892086 137.201 0.552485C143.679 -0.126718 150.302 0.0300206 156.648 1.51904C159.828 2.18518 162.929 3.20399 165.897 4.4579C168.879 5.73794 171.755 7.22696 174.262 9.22538Z" fill="#FEBA66"/>
<path d="M0.0117188 47.5621C3.48162 48.9989 7.01748 50.1091 10.6193 50.9581C14.1948 51.8463 17.8362 52.4732 21.4776 52.8651C23.2983 53.1133 25.1322 53.1394 26.9397 53.3092C28.7736 53.3222 30.5943 53.4659 32.415 53.3614L35.1461 53.2961C36.0565 53.2831 36.9668 53.1655 37.8772 53.1133C38.7875 53.0349 39.6979 52.9957 40.595 52.8782L43.2997 52.4994C46.9279 52.1075 50.4506 51.2716 53.9601 50.2658C57.5091 49.2993 60.8603 48.0192 64.4093 46.687C68.0376 45.3677 71.9692 44.5057 75.9537 44.9236C77.9195 45.1718 79.8986 45.7988 81.5082 46.9482C83.131 48.0845 84.292 49.7042 85.0308 51.4022C83.9226 49.887 82.5373 48.6462 80.9408 47.8756C79.3444 47.1049 77.5897 46.7914 75.8481 46.8437C72.3255 46.8959 68.8556 48.0584 65.5968 49.5213C62.2852 51.141 58.6965 52.6039 55.0815 53.8186C51.4401 54.9811 47.6799 55.9084 43.867 56.3787C36.2807 57.3713 28.5097 57.3844 21.0158 55.8823C17.2557 55.2031 13.5879 54.1451 10.0388 52.7998C6.51612 51.4022 3.07262 49.7695 0.0117188 47.5621Z" fill="#FEBA66"/>
<path d="M9.20035 35.0947C7.97834 35.0947 6.88165 34.9067 5.9103 34.5307C4.93896 34.1547 4.11645 33.6063 3.44277 32.8857C2.76909 32.1493 2.25208 31.2563 1.89175 30.2066C1.53141 29.1569 1.35124 27.9506 1.35124 26.5876C1.35124 25.2245 1.55491 24.0182 1.96225 22.9685C2.38525 21.9188 2.9571 21.0337 3.67777 20.313C4.39845 19.5766 5.24446 19.0205 6.21581 18.6445C7.18716 18.2684 8.229 18.0804 9.34135 18.0804C10.015 18.0804 10.626 18.1353 11.1744 18.2449C11.7227 18.3389 12.2006 18.4486 12.6079 18.574C13.0152 18.6993 13.3521 18.8325 13.6184 18.9735C13.8848 19.1145 14.0728 19.2163 14.1824 19.279L13.3129 21.6995C12.9369 21.4645 12.3964 21.2452 11.6914 21.0415C11.002 20.8222 10.25 20.7125 9.43536 20.7125C8.73035 20.7125 8.07234 20.8378 7.46133 21.0885C6.85032 21.3235 6.31764 21.6838 5.8633 22.1695C5.42463 22.6552 5.07996 23.2662 4.82929 24.0025C4.57862 24.7389 4.45328 25.5927 4.45328 26.5641C4.45328 27.4257 4.54728 28.2169 4.73529 28.9376C4.93896 29.6583 5.24446 30.285 5.6518 30.8176C6.05914 31.3346 6.57615 31.742 7.20282 32.0396C7.8295 32.3217 8.58151 32.4627 9.45886 32.4627C10.5085 32.4627 11.3624 32.3608 12.0204 32.1571C12.6784 31.9378 13.1876 31.7341 13.5479 31.5461L14.3469 33.9667C14.1589 34.092 13.9004 34.2173 13.5714 34.3427C13.2581 34.468 12.8821 34.5934 12.4434 34.7187C12.0047 34.8284 11.5112 34.9145 10.9629 34.9772C10.4145 35.0555 9.82703 35.0947 9.20035 35.0947ZM26.4759 34.3662C25.9275 34.5072 25.2147 34.6482 24.3373 34.7892C23.46 34.9459 22.4965 35.0242 21.4468 35.0242C20.4598 35.0242 19.6294 34.8832 18.9557 34.6012C18.2977 34.3192 17.7651 33.9275 17.3577 33.4262C16.9661 32.9248 16.684 32.3295 16.5117 31.6401C16.3394 30.9351 16.2532 30.1675 16.2532 29.3371V22.4515H19.0967V28.8906C19.0967 30.2066 19.2848 31.1466 19.6608 31.7106C20.0524 32.2747 20.7261 32.5567 21.6818 32.5567C22.0265 32.5567 22.3868 32.541 22.7628 32.5097C23.1545 32.4783 23.4443 32.4392 23.6323 32.3922V22.4515H26.4759V34.3662ZM37.0982 25.013C36.8632 24.9347 36.5342 24.8564 36.1112 24.778C35.7038 24.684 35.226 24.637 34.6777 24.637C34.3643 24.637 34.0275 24.6684 33.6671 24.731C33.3225 24.7937 33.0796 24.8485 32.9386 24.8955V34.7422H30.0951V23.039C30.6434 22.8353 31.3249 22.6473 32.1396 22.475C32.97 22.287 33.8865 22.193 34.8892 22.193C35.0772 22.193 35.2965 22.2087 35.5472 22.24C35.7978 22.2557 36.0485 22.287 36.2992 22.334C36.5499 22.3653 36.7927 22.4123 37.0277 22.475C37.2627 22.522 37.4507 22.569 37.5917 22.616L37.0982 25.013ZM46.5764 25.013C46.3414 24.9347 46.0124 24.8564 45.5893 24.778C45.182 24.684 44.7042 24.637 44.1558 24.637C43.8425 24.637 43.5056 24.6684 43.1453 24.731C42.8006 24.7937 42.5578 24.8485 42.4168 24.8955V34.7422H39.5733V23.039C40.1216 22.8353 40.8031 22.6473 41.6178 22.475C42.4481 22.287 43.3646 22.193 44.3673 22.193C44.5553 22.193 44.7747 22.2087 45.0253 22.24C45.276 22.2557 45.5267 22.287 45.7773 22.334C46.028 22.3653 46.2709 22.4123 46.5059 22.475C46.7409 22.522 46.9289 22.569 47.0699 22.616L46.5764 25.013ZM48.3699 28.6556C48.3699 27.5746 48.5266 26.6267 48.8399 25.8121C49.1689 24.9974 49.5998 24.3237 50.1324 23.791C50.6651 23.2427 51.2761 22.8353 51.9655 22.569C52.6548 22.287 53.3598 22.146 54.0805 22.146C55.7725 22.146 57.0885 22.6708 58.0286 23.7205C58.9842 24.7702 59.4621 26.3369 59.4621 28.4206C59.4621 28.5773 59.4542 28.7574 59.4386 28.9611C59.4386 29.1491 59.4307 29.3214 59.4151 29.4781H51.3075C51.3858 30.4651 51.7305 31.2328 52.3415 31.7811C52.9681 32.3138 53.869 32.5802 55.044 32.5802C55.7334 32.5802 56.36 32.5175 56.924 32.3922C57.5037 32.2668 57.9581 32.1336 58.2871 31.9926L58.6631 34.3192C58.5064 34.3975 58.2871 34.4837 58.0051 34.5777C57.7387 34.656 57.4254 34.7265 57.065 34.7892C56.7204 34.8675 56.3444 34.9302 55.937 34.9772C55.5297 35.0242 55.1145 35.0477 54.6915 35.0477C53.6105 35.0477 52.6705 34.891 51.8715 34.5777C51.0725 34.2487 50.4144 33.8022 49.8974 33.2382C49.3804 32.6585 48.9966 31.9848 48.7459 31.2171C48.4952 30.4338 48.3699 29.5799 48.3699 28.6556ZM56.6185 27.3866C56.6185 26.9949 56.5637 26.6267 56.454 26.2821C56.3444 25.9217 56.1799 25.6162 55.9605 25.3656C55.7569 25.0992 55.4984 24.8955 55.185 24.7545C54.8873 24.5979 54.527 24.5195 54.104 24.5195C53.6653 24.5195 53.2815 24.6057 52.9525 24.778C52.6235 24.9347 52.3415 25.1462 52.1065 25.4126C51.8871 25.6789 51.7148 25.9844 51.5895 26.3291C51.4641 26.6737 51.378 27.0262 51.331 27.3866H56.6185ZM62.4769 22.851C63.0253 22.6943 63.7381 22.5455 64.6154 22.4045C65.4928 22.2635 66.4641 22.193 67.5295 22.193C68.5322 22.193 69.3703 22.334 70.044 22.616C70.7177 22.8823 71.2504 23.2662 71.642 23.7675C72.0494 24.2532 72.3314 24.8485 72.4881 25.5536C72.6604 26.2429 72.7466 27.0027 72.7466 27.8331V34.7422H69.903V28.2796C69.903 27.6216 69.856 27.0654 69.762 26.6111C69.6837 26.1411 69.5427 25.7651 69.339 25.4831C69.151 25.1854 68.8847 24.9739 68.54 24.8485C68.211 24.7075 67.8037 24.637 67.318 24.637C66.9576 24.637 66.5816 24.6605 66.19 24.7075C65.7983 24.7545 65.5085 24.7937 65.3205 24.825V34.7422H62.4769V22.851ZM75.5422 28.6086C75.5422 27.6999 75.6832 26.8539 75.9652 26.0706C76.2472 25.2715 76.6467 24.5822 77.1637 24.0025C77.6964 23.4229 78.3387 22.9685 79.0907 22.6395C79.8427 22.3105 80.6888 22.146 81.6288 22.146C82.7881 22.146 83.8848 22.3575 84.9188 22.7805L84.3078 25.107C83.9788 24.966 83.6028 24.8485 83.1798 24.7545C82.7725 24.6605 82.3338 24.6135 81.8638 24.6135C80.7514 24.6135 79.9054 24.966 79.3257 25.6711C78.7461 26.3604 78.4562 27.3396 78.4562 28.6086C78.4562 29.8306 78.7304 30.802 79.2787 31.5226C79.8271 32.2277 80.7514 32.5802 82.0518 32.5802C82.5375 32.5802 83.0153 32.5332 83.4853 32.4392C83.9553 32.3452 84.3626 32.2277 84.7073 32.0866L85.1068 34.4367C84.7935 34.5934 84.3156 34.7344 83.6733 34.8597C83.0466 34.985 82.3965 35.0477 81.7228 35.0477C80.6731 35.0477 79.7566 34.891 78.9732 34.5777C78.2056 34.2487 77.5632 33.8022 77.0462 33.2382C76.5449 32.6585 76.1689 31.977 75.9182 31.1936C75.6675 30.3946 75.5422 29.5329 75.5422 28.6086ZM97.5495 22.4515C96.2805 27.1202 94.8078 31.3503 93.1315 35.1417C92.8181 35.8467 92.4969 36.4499 92.1679 36.9512C91.8389 37.4526 91.4708 37.8677 91.0634 38.1967C90.6561 38.5257 90.2017 38.7607 89.7004 38.9017C89.1991 39.0584 88.6194 39.1368 87.9614 39.1368C87.5227 39.1368 87.084 39.0898 86.6454 38.9957C86.2224 38.9017 85.9012 38.7999 85.6818 38.6902L86.1989 36.4107C86.7629 36.63 87.319 36.7397 87.8674 36.7397C88.6037 36.7397 89.1756 36.5595 89.5829 36.1992C90.0059 35.8545 90.3741 35.314 90.6874 34.5777C89.7944 32.8543 88.9327 30.9743 88.1024 28.9376C87.2877 26.9009 86.5592 24.7389 85.9168 22.4515H88.9484C89.1051 23.1095 89.2931 23.8224 89.5124 24.59C89.7474 25.3577 89.9981 26.1411 90.2644 26.9401C90.5307 27.7234 90.8128 28.5068 91.1104 29.2901C91.4081 30.0735 91.7058 30.802 92.0034 31.4756C92.5048 30.0813 92.9748 28.6008 93.4135 27.0341C93.8521 25.4517 94.2516 23.9242 94.612 22.4515H97.5495ZM115.761 20.2895C116.012 21.1355 116.278 22.0207 116.56 22.945C116.842 23.8537 117.132 24.7702 117.43 25.6946C117.743 26.6032 118.049 27.5041 118.346 28.3971C118.66 29.2744 118.957 30.1048 119.239 30.8881C119.474 30.0421 119.701 29.1256 119.921 28.1386C120.14 27.1359 120.359 26.1019 120.579 25.0365C120.798 23.9555 121.01 22.8588 121.213 21.7465C121.433 20.6341 121.636 19.5375 121.824 18.4565H124.879C124.331 21.4018 123.72 24.2375 123.046 26.9636C122.373 29.6739 121.621 32.2668 120.79 34.7422H117.97C116.748 31.5775 115.565 28.1229 114.422 24.3785C113.842 26.2742 113.254 28.0759 112.659 29.7836C112.064 31.4913 111.468 33.1442 110.873 34.7422H108.053C107.207 32.2668 106.447 29.6739 105.774 26.9636C105.116 24.2375 104.512 21.4018 103.964 18.4565H107.137C107.325 19.5218 107.52 20.6106 107.724 21.723C107.943 22.8353 108.163 23.932 108.382 25.013C108.617 26.0784 108.852 27.1124 109.087 28.1151C109.322 29.1178 109.557 30.0421 109.792 30.8881C110.09 30.0891 110.387 29.2509 110.685 28.3736C110.998 27.4806 111.304 26.5797 111.602 25.6711C111.899 24.7467 112.181 23.8302 112.448 22.9215C112.73 22.0128 112.988 21.1355 113.223 20.2895H115.761ZM130.945 32.7447C131.822 32.7447 132.488 32.6977 132.943 32.6037V29.4546C132.786 29.4076 132.559 29.3606 132.261 29.3136C131.963 29.2666 131.634 29.2431 131.274 29.2431C130.961 29.2431 130.639 29.2666 130.31 29.3136C129.997 29.3606 129.707 29.4468 129.441 29.5721C129.19 29.6974 128.987 29.8776 128.83 30.1126C128.673 30.332 128.595 30.614 128.595 30.9586C128.595 31.6323 128.806 32.1023 129.229 32.3687C129.652 32.6193 130.224 32.7447 130.945 32.7447ZM130.71 22.146C131.65 22.146 132.441 22.2635 133.084 22.4985C133.726 22.7335 134.235 23.0625 134.611 23.4855C135.003 23.9085 135.277 24.4255 135.434 25.0365C135.606 25.6319 135.692 26.2899 135.692 27.0106V34.4602C135.253 34.5542 134.588 34.6639 133.695 34.7892C132.817 34.9302 131.822 35.0007 130.71 35.0007C129.974 35.0007 129.3 34.9302 128.689 34.7892C128.078 34.6482 127.553 34.421 127.114 34.1077C126.691 33.7943 126.355 33.387 126.104 32.8857C125.869 32.3843 125.751 31.7655 125.751 31.0291C125.751 30.3241 125.885 29.7288 126.151 29.2431C126.433 28.7574 126.809 28.3658 127.279 28.0681C127.749 27.7548 128.289 27.5354 128.9 27.4101C129.527 27.2691 130.177 27.1986 130.851 27.1986C131.164 27.1986 131.493 27.2221 131.838 27.2691C132.183 27.3004 132.551 27.3631 132.943 27.4571V26.9871C132.943 26.6581 132.903 26.3447 132.825 26.0471C132.747 25.7494 132.606 25.4909 132.402 25.2715C132.214 25.0365 131.955 24.8564 131.626 24.731C131.313 24.6057 130.914 24.543 130.428 24.543C129.77 24.543 129.167 24.59 128.618 24.684C128.07 24.778 127.624 24.8877 127.279 25.013L126.926 22.71C127.287 22.5847 127.812 22.4593 128.501 22.334C129.19 22.2087 129.927 22.146 130.71 22.146ZM142.025 34.7422C141.242 33.1285 140.435 31.2798 139.604 29.1961C138.79 27.0967 138.046 24.8485 137.372 22.4515H140.403C140.576 23.1409 140.772 23.885 140.991 24.684C141.226 25.4674 141.469 26.2586 141.72 27.0576C141.986 27.8409 142.252 28.6086 142.519 29.3606C142.801 30.097 143.059 30.7628 143.294 31.3581C143.529 30.7628 143.78 30.097 144.046 29.3606C144.312 28.6086 144.571 27.8409 144.822 27.0576C145.088 26.2586 145.339 25.4674 145.574 24.684C145.809 23.885 146.012 23.1409 146.185 22.4515H149.122C148.448 24.8485 147.696 27.0967 146.866 29.1961C146.051 31.2798 145.252 33.1285 144.469 34.7422H142.025ZM150.289 28.6556C150.289 27.5746 150.446 26.6267 150.759 25.8121C151.088 24.9974 151.519 24.3237 152.051 23.791C152.584 23.2427 153.195 22.8353 153.884 22.569C154.574 22.287 155.279 22.146 155.999 22.146C157.691 22.146 159.008 22.6708 159.948 23.7205C160.903 24.7702 161.381 26.3369 161.381 28.4206C161.381 28.5773 161.373 28.7574 161.358 28.9611C161.358 29.1491 161.35 29.3214 161.334 29.4781H153.226C153.305 30.4651 153.649 31.2328 154.26 31.7811C154.887 32.3138 155.788 32.5802 156.963 32.5802C157.652 32.5802 158.279 32.5175 158.843 32.3922C159.423 32.2668 159.877 32.1336 160.206 31.9926L160.582 34.3192C160.425 34.3975 160.206 34.4837 159.924 34.5777C159.658 34.656 159.344 34.7265 158.984 34.7892C158.639 34.8675 158.263 34.9302 157.856 34.9772C157.449 35.0242 157.033 35.0477 156.61 35.0477C155.529 35.0477 154.589 34.891 153.79 34.5777C152.991 34.2487 152.333 33.8022 151.816 33.2382C151.299 32.6585 150.916 31.9848 150.665 31.2171C150.414 30.4338 150.289 29.5799 150.289 28.6556ZM158.537 27.3866C158.537 26.9949 158.483 26.6267 158.373 26.2821C158.263 25.9217 158.099 25.6162 157.879 25.3656C157.676 25.0992 157.417 24.8955 157.104 24.7545C156.806 24.5979 156.446 24.5195 156.023 24.5195C155.584 24.5195 155.2 24.6057 154.871 24.778C154.542 24.9347 154.26 25.1462 154.025 25.4126C153.806 25.6789 153.634 25.9844 153.508 26.3291C153.383 26.6737 153.297 27.0262 153.25 27.3866H158.537Z" fill="#263238"/>
</svg>
