<svg width="181" height="41" viewBox="0 0 181 41" fill="none" xmlns="http://www.w3.org/2000/svg">
<path d="M51.5441 31.9454C50.3687 31.9454 49.1932 31.9041 48.0177 31.8217C46.8629 31.7598 45.6565 31.5948 44.3985 31.3267V10.5394C45.3884 10.3538 46.4711 10.2198 47.6465 10.1373C48.822 10.0342 49.915 9.98262 50.9255 9.98262C52.2865 9.98262 53.5342 10.0857 54.6684 10.292C55.8233 10.4776 56.8131 10.8075 57.638 11.2818C58.4629 11.7561 59.1022 12.3851 59.5559 13.1688C60.0302 13.9318 60.2674 14.8804 60.2674 16.0146C60.2674 17.7263 59.4425 19.0771 57.7927 20.0669C59.1538 20.5825 60.0818 21.2837 60.5767 22.1704C61.0717 23.0572 61.3191 24.0574 61.3191 25.171C61.3191 27.4188 60.4942 29.1098 58.8444 30.2441C57.2153 31.3783 54.7818 31.9454 51.5441 31.9454ZM49.1004 22.3251V27.8622C49.451 27.9034 49.8325 27.9344 50.2449 27.955C50.6574 27.9756 51.1111 27.9859 51.606 27.9859C53.0496 27.9859 54.2147 27.7797 55.1015 27.3672C55.9883 26.9548 56.4316 26.1918 56.4316 25.0782C56.4316 24.0883 56.0604 23.3871 55.318 22.9747C54.5756 22.5416 53.5136 22.3251 52.1319 22.3251H49.1004ZM49.1004 18.644H51.4513C52.9361 18.644 53.9982 18.4584 54.6375 18.0872C55.2768 17.6954 55.5964 17.0767 55.5964 16.2312C55.5964 15.365 55.2665 14.7567 54.6066 14.4061C53.9466 14.0555 52.9774 13.8802 51.6988 13.8802C51.2864 13.8802 50.843 13.8905 50.3687 13.9112C49.8944 13.9112 49.4716 13.9318 49.1004 13.973V18.644ZM69.4817 31.667H64.8726V15.396H69.4817V31.667ZM69.9148 10.6941C69.9148 11.5396 69.6364 12.2098 69.0796 12.7048C68.5434 13.1791 67.9041 13.4162 67.1617 13.4162C66.4193 13.4162 65.7697 13.1791 65.2129 12.7048C64.6767 12.2098 64.4086 11.5396 64.4086 10.6941C64.4086 9.84857 64.6767 9.18866 65.2129 8.71435C65.7697 8.21941 66.4193 7.97194 67.1617 7.97194C67.9041 7.97194 68.5434 8.21941 69.0796 8.71435C69.6364 9.18866 69.9148 9.84857 69.9148 10.6941ZM73.6596 11.3437L78.2687 10.6013V15.396H83.8058V19.2317H78.2687V24.9544C78.2687 25.9237 78.4337 26.697 78.7637 27.2744C79.1143 27.8519 79.8051 28.1406 80.8362 28.1406C81.3312 28.1406 81.8364 28.0993 82.352 28.0168C82.8881 27.9137 83.3728 27.7797 83.8058 27.6147L84.4554 31.203C83.8986 31.4298 83.28 31.6257 82.5994 31.7907C81.9189 31.9557 81.0837 32.0382 80.0938 32.0382C78.8359 32.0382 77.7944 31.8732 76.9695 31.5433C76.1446 31.1927 75.4847 30.7184 74.9898 30.1203C74.4949 29.5016 74.1443 28.7592 73.938 27.8931C73.7524 27.027 73.6596 26.068 73.6596 25.0163V11.3437ZM87.4045 11.3437L92.0136 10.6013V15.396H97.5507V19.2317H92.0136V24.9544C92.0136 25.9237 92.1786 26.697 92.5085 27.2744C92.8591 27.8519 93.55 28.1406 94.5811 28.1406C95.076 28.1406 95.5813 28.0993 96.0968 28.0168C96.633 27.9137 97.1176 27.7797 97.5507 27.6147L98.2003 31.203C97.6435 31.4298 97.0248 31.6257 96.3443 31.7907C95.6637 31.9557 94.8285 32.0382 93.8387 32.0382C92.5807 32.0382 91.5393 31.8732 90.7144 31.5433C89.8895 31.1927 89.2296 30.7184 88.7346 30.1203C88.2397 29.5016 87.8891 28.7592 87.6829 27.8931C87.4973 27.027 87.4045 26.068 87.4045 25.0163V11.3437ZM115.919 23.5006C115.919 24.7791 115.734 25.9546 115.362 27.027C114.991 28.0787 114.455 28.9861 113.754 29.7491C113.053 30.4915 112.207 31.0689 111.217 31.4814C110.248 31.8938 109.155 32.1001 107.938 32.1001C106.742 32.1001 105.649 31.8938 104.659 31.4814C103.69 31.0689 102.855 30.4915 102.154 29.7491C101.453 28.9861 100.906 28.0787 100.514 27.027C100.122 25.9546 99.9265 24.7791 99.9265 23.5006C99.9265 22.222 100.122 21.0568 100.514 20.0051C100.927 18.9533 101.484 18.0563 102.185 17.3139C102.906 16.5715 103.752 15.994 104.721 15.5816C105.711 15.1691 106.783 14.9629 107.938 14.9629C109.114 14.9629 110.186 15.1691 111.155 15.5816C112.145 15.994 112.991 16.5715 113.692 17.3139C114.393 18.0563 114.94 18.9533 115.331 20.0051C115.723 21.0568 115.919 22.222 115.919 23.5006ZM111.217 23.5006C111.217 22.0776 110.929 20.964 110.351 20.1597C109.794 19.3348 108.99 18.9224 107.938 18.9224C106.887 18.9224 106.072 19.3348 105.495 20.1597C104.917 20.964 104.628 22.0776 104.628 23.5006C104.628 24.9235 104.917 26.0577 105.495 26.9032C106.072 27.7281 106.887 28.1406 107.938 28.1406C108.99 28.1406 109.794 27.7281 110.351 26.9032C110.929 26.0577 111.217 24.9235 111.217 23.5006ZM129.295 19.4792C128.883 19.3761 128.398 19.273 127.842 19.1699C127.285 19.0461 126.687 18.9843 126.047 18.9843C125.759 18.9843 125.408 19.0152 124.996 19.0771C124.604 19.1183 124.305 19.1699 124.099 19.2317V31.667H119.49V16.2621C120.314 15.9734 121.284 15.7053 122.397 15.4578C123.532 15.1898 124.789 15.0557 126.171 15.0557C126.419 15.0557 126.718 15.0763 127.068 15.1176C127.419 15.1382 127.769 15.1794 128.12 15.2413C128.471 15.2826 128.821 15.3444 129.172 15.4269C129.522 15.4888 129.821 15.5713 130.069 15.6744L129.295 19.4792ZM131.464 23.6552C131.464 22.2117 131.681 20.9537 132.114 19.8813C132.567 18.7884 133.155 17.881 133.877 17.1592C134.599 16.4374 135.424 15.8909 136.352 15.5197C137.3 15.1485 138.27 14.9629 139.259 14.9629C141.569 14.9629 143.394 15.6744 144.735 17.0973C146.075 18.4996 146.745 20.5722 146.745 23.315C146.745 23.583 146.735 23.8821 146.714 24.212C146.694 24.5214 146.673 24.7998 146.653 25.0472H136.197C136.3 25.9959 136.743 26.7486 137.527 27.3054C138.311 27.8622 139.363 28.1406 140.682 28.1406C141.528 28.1406 142.353 28.0684 143.157 27.924C143.982 27.7591 144.652 27.5631 145.168 27.3363L145.786 31.0793C145.539 31.203 145.209 31.3267 144.797 31.4505C144.384 31.5742 143.92 31.6773 143.405 31.7598C142.91 31.8629 142.373 31.9454 141.796 32.0073C141.219 32.0691 140.641 32.1001 140.064 32.1001C138.6 32.1001 137.321 31.8835 136.228 31.4505C135.156 31.0174 134.259 30.4297 133.537 29.6872C132.836 28.9242 132.31 28.0272 131.959 26.996C131.629 25.9649 131.464 24.8513 131.464 23.6552ZM142.291 21.892C142.27 21.5002 142.198 21.1187 142.074 20.7475C141.971 20.3763 141.796 20.0463 141.548 19.7576C141.322 19.4689 141.023 19.2317 140.651 19.0461C140.301 18.8605 139.857 18.7677 139.321 18.7677C138.806 18.7677 138.362 18.8605 137.991 19.0461C137.62 19.2111 137.311 19.438 137.063 19.7267C136.816 20.0154 136.62 20.3556 136.475 20.7475C136.352 21.1187 136.259 21.5002 136.197 21.892H142.291ZM150.302 15.9528C151.086 15.7259 152.096 15.5197 153.334 15.3341C154.571 15.1279 155.87 15.0248 157.231 15.0248C158.613 15.0248 159.758 15.2104 160.665 15.5816C161.593 15.9322 162.325 16.4374 162.861 17.0973C163.397 17.7572 163.779 18.5409 164.006 19.4483C164.233 20.3556 164.346 21.3661 164.346 22.4797V31.667H159.737V23.0365C159.737 21.5517 159.541 20.5 159.149 19.8813C158.757 19.2627 158.025 18.9533 156.953 18.9533C156.623 18.9533 156.272 18.974 155.901 19.0152C155.53 19.0358 155.2 19.0668 154.911 19.108V31.667H150.302V15.9528ZM168.363 11.3437L172.972 10.6013V15.396H178.509V19.2317H172.972V24.9544C172.972 25.9237 173.137 26.697 173.467 27.2744C173.818 27.8519 174.509 28.1406 175.54 28.1406C176.035 28.1406 176.54 28.0993 177.056 28.0168C177.592 27.9137 178.076 27.7797 178.509 27.6147L179.159 31.203C178.602 31.4298 177.984 31.6257 177.303 31.7907C176.622 31.9557 175.787 32.0382 174.797 32.0382C173.539 32.0382 172.498 31.8732 171.673 31.5433C170.848 31.1927 170.188 30.7184 169.693 30.1203C169.198 29.5016 168.848 28.7592 168.642 27.8931C168.456 27.027 168.363 26.068 168.363 25.0163V11.3437Z" fill="#263238"/>
<rect x="0.679688" y="4.10449" width="10.3112" height="10.3112" fill="#3EBA59"/>
<rect x="0.679688" y="14.416" width="10.3112" height="11.4568" fill="#83EBFF"/>
<rect x="0.679688" y="25.8721" width="10.3112" height="10.3112" fill="#20C1E1"/>
<rect x="10.9902" y="4.10449" width="11.4568" height="10.3112" fill="#83EBFF"/>
<rect x="10.9902" y="25.8721" width="11.4568" height="10.3112" fill="#83EBFF"/>
<rect x="22.4473" y="4.10449" width="10.3112" height="10.3112" fill="#20C1E1"/>
<rect x="22.4473" y="14.416" width="10.3112" height="11.4568" fill="#83EBFF"/>
<rect x="22.4473" y="25.8721" width="10.3112" height="10.3112" fill="#3EBA59"/>
<rect x="6.4082" y="9.83301" width="20.6223" height="20.6223" fill="white"/>
</svg>
