<svg width="123" height="50" viewBox="0 0 123 50" fill="none" xmlns="http://www.w3.org/2000/svg">
<path d="M0.763672 30.6656V0.416992H18.7587V30.6508H0.763672V30.6656ZM16.5784 23.6283L17.0414 20.2871L15.3687 20.1244L14.861 22.6969C13.8157 23.2144 12.5314 23.4657 10.9932 23.4657C8.9025 23.4657 7.24486 22.8152 6.03524 21.4994C4.81068 20.1836 4.21333 18.4538 4.21333 16.2953C4.21333 14.1959 4.81068 12.4662 5.99044 11.106C7.17019 9.74588 8.72333 9.0658 10.6498 9.0658C11.6354 9.0658 12.4716 9.18407 13.1437 9.40584C13.8157 9.6276 14.4279 9.92329 15.0104 10.3077L15.5032 12.8506L17.2056 12.6879L16.7128 9.3467C15.996 8.74054 15.1447 8.25266 14.1591 7.86827C13.1735 7.49866 11.949 7.30647 10.5004 7.30647C8.78305 7.30647 7.30462 7.72043 6.06513 8.56313C4.82564 9.40584 3.85495 10.5147 3.16801 11.8896C2.48106 13.2793 2.13758 14.7725 2.13758 16.3692C2.13758 18.8973 2.92906 21.0115 4.51202 22.6969C6.09499 24.3823 8.15582 25.225 10.7095 25.225C13.2183 25.225 15.1747 24.6928 16.5784 23.6283Z" fill="#263238"/>
<path d="M24.8672 30.6656V0.416992H32.6028V30.6508H24.8672V30.6656ZM25.6885 24.9589H31.7964V23.4361H29.6908V6.55247H25.6587V8.07525H27.7942V23.4361H25.6885V24.9589Z" fill="#263238"/>
<path d="M38.7109 30.6656V0.416992H52.3005V30.6508H38.7109V30.6656ZM41.175 13.9594L40.7419 16.7093L42.3099 16.9015L42.7729 14.8465C43.4449 14.5212 44.2065 14.3586 45.1025 14.3586C46.1777 14.3586 46.9095 14.6247 47.2829 15.1569C47.6562 15.6892 47.8354 16.384 47.8354 17.2415V18.306C47.5069 18.2764 47.1634 18.2468 46.79 18.2321C46.4167 18.2173 46.0583 18.2025 45.6999 18.2025C44.3559 18.2025 43.0715 18.439 41.8769 18.9121C40.6822 19.3852 40.0849 20.3758 40.0849 21.869C40.0849 23.1404 40.4881 24.0127 41.3094 24.4858C42.1308 24.9737 42.9372 25.2102 43.7287 25.2102C44.6993 25.2102 45.5356 24.9589 46.2225 24.4562C46.9095 23.9536 47.4471 23.3918 47.8354 22.7413V22.8004C47.8653 24.4119 48.597 25.2102 50.0306 25.2102C50.5832 25.2102 51.1058 25.0772 51.5987 24.8111L51.5688 23.584C51.3299 23.6875 51.061 23.7466 50.7624 23.7466C50.0754 23.7466 49.732 23.3178 49.732 22.4604V16.798C49.732 14.1368 48.2983 12.8062 45.4311 12.8062C44.6396 12.8062 43.8929 12.8949 43.191 13.0723C42.4742 13.2645 41.8022 13.5602 41.175 13.9594ZM47.8205 20.494C47.7458 21.4698 47.3426 22.2534 46.6108 22.8152C45.8791 23.3918 45.1025 23.6727 44.2662 23.6727C43.7436 23.6727 43.2359 23.5248 42.758 23.2439C42.2652 22.963 42.0262 22.4308 42.0262 21.662C42.0262 20.7306 42.3996 20.1392 43.1164 19.8583C43.8481 19.5774 44.6545 19.4444 45.5655 19.4444C45.9687 19.4444 46.3569 19.4591 46.7303 19.5035C47.1036 19.5331 47.477 19.5626 47.8055 19.5774V20.494H47.8205Z" fill="#263238"/>
<path d="M58.4219 30.6656V0.416992H70.772V30.6508H58.4219V30.6656ZM69.4727 21.5142C69.4727 20.568 69.2189 19.8731 68.7111 19.4148C68.2034 18.9565 67.5911 18.646 66.8444 18.4686C66.0977 18.2912 65.366 18.1433 64.6343 18.0251C63.9025 17.9068 63.2753 17.7146 62.7676 17.4633C62.2598 17.2119 62.0059 16.7684 62.0059 16.1327C62.0059 15.5265 62.2449 15.083 62.7377 14.7873C63.2305 14.4916 63.8428 14.3586 64.6044 14.3586C65.4855 14.3586 66.3068 14.5508 67.0685 14.9499L67.3671 16.8719L68.9352 16.6797L68.6365 13.9003C68.1287 13.5898 67.5165 13.3385 66.7847 13.1315C66.053 12.9245 65.2764 12.8062 64.4401 12.8062C63.335 12.8062 62.3196 13.0723 61.3787 13.5898C60.4379 14.1072 59.975 14.9943 59.975 16.2657C59.975 17.1972 60.2288 17.8772 60.7366 18.306C61.2443 18.7495 61.8716 19.0452 62.6332 19.2226C63.3948 19.4 64.1414 19.5479 64.8881 19.6809C65.6348 19.7992 66.262 20.0062 66.7698 20.2723C67.2775 20.5384 67.5314 20.9967 67.5314 21.662C67.5314 22.3421 67.2028 22.8447 66.5457 23.17C65.8886 23.4953 65.142 23.6579 64.2908 23.6579C63.335 23.6579 62.439 23.4657 61.6176 23.0665L61.6923 21.4846L60.184 21.322L59.8107 24.0275C60.3334 24.3675 61.0203 24.6484 61.8566 24.8702C62.6929 25.092 63.5292 25.2102 64.3804 25.2102C65.8289 25.2102 67.0386 24.885 68.0093 24.2197C68.98 23.584 69.4727 22.6673 69.4727 21.5142Z" fill="#263238"/>
<path d="M76.8809 30.6656V0.416992H89.2309V30.6508H76.8809V30.6656ZM87.9317 21.5142C87.9317 20.568 87.6778 19.8731 87.1701 19.4148C86.6623 18.9565 86.05 18.646 85.3034 18.4686C84.5567 18.2912 83.825 18.1433 83.0932 18.0251C82.3615 17.9068 81.7342 17.7146 81.2265 17.4633C80.7188 17.2119 80.4649 16.7684 80.4649 16.1327C80.4649 15.5265 80.7038 15.083 81.1966 14.7873C81.6894 14.4916 82.3017 14.3586 83.0633 14.3586C83.9444 14.3586 84.7658 14.5508 85.5274 14.9499L85.8261 16.8719L87.3941 16.6797L87.0954 13.9003C86.5877 13.5898 85.9754 13.3385 85.2436 13.1315C84.5119 12.9245 83.7353 12.8062 82.8991 12.8062C81.794 12.8062 80.7785 13.0723 79.8377 13.5898C78.8969 14.1072 78.4339 14.9943 78.4339 16.2657C78.4339 17.1972 78.6878 17.8772 79.1956 18.306C79.7033 18.7495 80.3305 19.0452 81.0922 19.2226C81.8538 19.4 82.6004 19.5479 83.3471 19.6809C84.0937 19.7992 84.721 20.0062 85.2287 20.2723C85.7364 20.5384 85.9903 20.9967 85.9903 21.662C85.9903 22.3421 85.6618 22.8447 85.0048 23.17C84.3477 23.4953 83.601 23.6579 82.7498 23.6579C81.794 23.6579 80.8979 23.4657 80.0766 23.0665L80.1513 21.4846L78.643 21.322L78.2697 24.0275C78.7924 24.3675 79.4793 24.6484 80.3156 24.8702C81.1519 25.092 81.9881 25.2102 82.8394 25.2102C84.2879 25.2102 85.4975 24.885 86.4682 24.2197C87.4389 23.584 87.9317 22.6673 87.9317 21.5142Z" fill="#263238"/>
<path d="M95.3379 30.6656V0.416992H103.477V30.6508H95.3379V30.6656ZM96.5326 24.9589H102.64V23.4361H100.535V13.0576H96.4878V14.5803H98.6531V23.4361H96.5475V24.9589H96.5326ZM98.4441 7.54302V9.98242H100.505V7.54302H98.4441Z" fill="#263238"/>
<path d="M109.586 30.6656V0.416992H122.593V30.6508H109.586V30.6656ZM121.428 20.9524L119.801 20.5975C119.442 22.6082 118.352 23.6135 116.56 23.6135C115.365 23.6135 114.454 23.2144 113.827 22.416C113.2 21.6177 112.886 20.494 112.886 19.0748C112.886 17.7885 113.17 16.6945 113.723 15.7779C114.275 14.8612 115.201 14.4177 116.485 14.4177C117.471 14.4177 118.337 14.6395 119.054 15.083L119.517 17.0937L121.085 16.9015L120.622 14.0333C120.01 13.575 119.368 13.2498 118.695 13.0723C118.023 12.8949 117.292 12.8062 116.5 12.8062C114.634 12.8062 113.215 13.4567 112.289 14.7577C111.348 16.0588 110.885 17.5372 110.885 19.1782C110.885 21.0854 111.378 22.5786 112.379 23.6283C113.364 24.6928 114.693 25.225 116.351 25.225C118.009 25.225 119.233 24.7667 120.01 23.8649C120.786 22.9482 121.264 21.9873 121.428 20.9524Z" fill="#263238"/>
<path d="M8.54348 47.1796C8.20001 47.8006 7.69225 48.2885 7.03517 48.6285C6.36316 48.9685 5.57167 49.146 4.64579 49.146H1.97266V40.8076H4.64579C5.57167 40.8076 6.3781 40.9702 7.03517 41.3103C7.69225 41.6503 8.20001 42.1234 8.54348 42.7591C8.88696 43.3949 9.05122 44.1193 9.05122 44.9768C9.05122 45.8195 8.88696 46.5587 8.54348 47.1796ZM7.06503 47.3423C7.64744 46.7805 7.9312 45.9969 7.9312 44.9768C7.9312 43.9567 7.64744 43.1731 7.06503 42.6113C6.48261 42.0495 5.64633 41.7686 4.54124 41.7686H3.03298V48.185H4.54124C5.64633 48.185 6.48261 47.9041 7.06503 47.3423Z" fill="#FF5196"/>
<path d="M14.5921 41.6799V44.5333H17.7879V45.3612H14.5921V48.2737H18.1463V49.146H13.502V40.8076H18.1463V41.6799H14.5921Z" fill="#FF5196"/>
<path d="M27.5839 48.0813C27.3898 48.4214 27.106 48.7023 26.7178 48.9092C26.3295 49.1162 25.8516 49.2345 25.2692 49.2345C24.7167 49.2345 24.2089 49.131 23.7758 48.9388C23.3428 48.7318 22.9993 48.4657 22.7305 48.1109C22.4766 47.7561 22.3273 47.3569 22.2825 46.9134H23.4473C23.4772 47.1499 23.5518 47.3865 23.6862 47.6082C23.8206 47.83 24.0297 48.0222 24.2836 48.17C24.5375 48.3179 24.8511 48.3918 25.2244 48.3918C25.7023 48.3918 26.0757 48.2735 26.3295 48.0074C26.5834 47.7413 26.7178 47.4308 26.7178 47.0316C26.7178 46.6916 26.6282 46.4107 26.449 46.2037C26.2698 45.9967 26.0458 45.8193 25.7919 45.7011C25.538 45.5828 25.1647 45.4497 24.7167 45.3019C24.1791 45.1245 23.7609 44.9618 23.4324 44.814C23.1039 44.6662 22.835 44.4296 22.611 44.1191C22.387 43.8087 22.2676 43.4095 22.2676 42.9068C22.2676 42.4781 22.3721 42.0937 22.5812 41.7537C22.7902 41.4284 23.0889 41.1623 23.4921 40.9849C23.8804 40.8075 24.3583 40.7188 24.881 40.7188C25.7023 40.7188 26.3743 40.9109 26.8522 41.3101C27.345 41.7093 27.6138 42.212 27.7034 42.8329H26.5386C26.4788 42.5076 26.2996 42.212 26.0308 41.9606C25.7471 41.7093 25.3737 41.5762 24.8959 41.5762C24.4628 41.5762 24.1044 41.6945 23.8505 41.9163C23.5817 42.138 23.4622 42.4633 23.4622 42.8625C23.4622 43.1877 23.5519 43.4538 23.7161 43.646C23.8953 43.853 24.1044 44.0009 24.3583 44.1191C24.6121 44.2374 24.9705 44.3557 25.4036 44.5035C25.9412 44.6809 26.3743 44.8436 26.7178 45.0062C27.0463 45.1688 27.33 45.4054 27.554 45.7158C27.7781 46.0263 27.8975 46.4551 27.8975 46.9873C27.8677 47.3717 27.7781 47.7413 27.5839 48.0813Z" fill="#FF5196"/>
<path d="M33.4085 40.8076V49.146H32.3184V40.8076H33.4085Z" fill="#FF5196"/>
<path d="M44.4281 41.4433C45.1001 41.9312 45.5481 42.5817 45.7721 43.4096H44.6223C44.4281 42.9069 44.0846 42.493 43.6217 42.1973C43.1588 41.8868 42.6062 41.739 41.9641 41.739C41.3966 41.739 40.8739 41.872 40.4259 42.1381C39.9779 42.4043 39.6195 42.7739 39.3507 43.2618C39.0968 43.7496 38.9624 44.3262 38.9624 44.9915C38.9624 45.6716 39.0968 46.263 39.3507 46.7508C39.6046 47.2387 39.9779 47.6231 40.4408 47.8892C40.9038 48.1554 41.4414 48.2884 42.0537 48.2884C42.5764 48.2884 43.0393 48.1701 43.4724 47.9632C43.9054 47.7414 44.2489 47.4161 44.5326 47.0022C44.8164 46.5882 44.9657 46.0856 45.0255 45.5238H41.7102V44.7254H45.9364V45.7159C45.8617 46.3812 45.6527 46.9726 45.3092 47.5196C44.9657 48.0667 44.5028 48.4806 43.9204 48.7911C43.338 49.1015 42.6809 49.2642 41.9342 49.2642C41.1278 49.2642 40.411 49.0868 39.7837 48.7319C39.1565 48.3771 38.6787 47.8745 38.3352 47.2239C37.9917 46.5882 37.8125 45.849 37.8125 45.0211C37.8125 44.1932 37.9917 43.454 38.3352 42.8182C38.6787 42.1825 39.1715 41.6651 39.7837 41.3102C40.396 40.9554 41.1128 40.7632 41.9192 40.7632C42.9347 40.7336 43.7561 40.9702 44.4281 41.4433Z" fill="#FF5196"/>
<path d="M56.9582 49.146H55.8681L51.4925 42.5522V49.146H50.4023V40.8076H51.4925L55.8681 47.4014V40.8076H56.9582V49.146Z" fill="#FF5196"/>
<path d="M72.6679 48.0813C72.4738 48.4214 72.19 48.7023 71.8018 48.9092C71.4135 49.1162 70.9356 49.2345 70.3532 49.2345C69.8007 49.2345 69.2929 49.131 68.8599 48.9388C68.4268 48.7318 68.0833 48.4657 67.8145 48.1109C67.5606 47.7561 67.4113 47.3569 67.3665 46.9134H68.5313C68.5612 47.1499 68.6359 47.3865 68.7703 47.6082C68.9047 47.83 69.1137 48.0222 69.3676 48.17C69.6214 48.3179 69.935 48.3918 70.3084 48.3918C70.7863 48.3918 71.1596 48.2735 71.4135 48.0074C71.6673 47.7413 71.8018 47.4308 71.8018 47.0316C71.8018 46.6916 71.7122 46.4107 71.533 46.2037C71.3538 45.9967 71.1297 45.8193 70.8759 45.7011C70.622 45.5828 70.2487 45.4497 69.8007 45.3019C69.2631 45.1245 68.8449 44.9618 68.5163 44.814C68.1878 44.6662 67.919 44.4296 67.695 44.1191C67.471 43.8087 67.3516 43.4095 67.3516 42.9068C67.3516 42.4781 67.456 42.0937 67.6651 41.7537C67.8742 41.4284 68.1729 41.1623 68.5761 40.9849C68.9644 40.8075 69.4423 40.7188 69.9649 40.7188C70.7863 40.7188 71.4583 40.9109 71.9362 41.3101C72.429 41.7093 72.6978 42.212 72.7874 42.8329H71.6226C71.5628 42.5076 71.3836 42.212 71.1148 41.9606C70.831 41.7093 70.4578 41.5762 69.9799 41.5762C69.5468 41.5762 69.1884 41.6945 68.9345 41.9163C68.6657 42.138 68.5462 42.4633 68.5462 42.8625C68.5462 43.1877 68.6358 43.4538 68.8001 43.646C68.9793 43.853 69.1883 44.0009 69.4422 44.1191C69.6961 44.2374 70.0545 44.3557 70.4876 44.5035C71.0252 44.6809 71.4583 44.8436 71.8018 45.0062C72.1303 45.1688 72.414 45.4054 72.638 45.7158C72.862 46.0263 72.9815 46.4551 72.9815 46.9873C72.9516 47.3717 72.8621 47.7413 72.6679 48.0813Z" fill="#FF5196"/>
<path d="M82.5689 40.8076V41.6799H80.1944V49.146H79.0893V41.6799H76.7148V40.8076H82.5689Z" fill="#FF5196"/>
<path d="M87.6481 40.8076V45.8047C87.6481 46.6178 87.8273 47.224 88.2007 47.6232C88.574 48.0076 89.0668 48.2145 89.7239 48.2145C90.3661 48.2145 90.8589 48.0223 91.2173 47.6232C91.5757 47.224 91.7549 46.6326 91.7549 45.8195V40.8224H92.8451V45.8195C92.8451 46.9579 92.5613 47.8154 91.9939 48.3772C91.4264 48.9538 90.6647 49.2347 89.709 49.2347C88.7681 49.2347 88.0066 48.9538 87.4391 48.3772C86.8716 47.8006 86.5879 46.9579 86.5879 45.8195V40.8224H87.6481V40.8076Z" fill="#FF5196"/>
<path d="M104.088 47.1796C103.745 47.8006 103.237 48.2885 102.58 48.6285C101.908 48.9685 101.117 49.146 100.191 49.146H97.5176V40.8076H100.191C101.117 40.8076 101.923 40.9702 102.58 41.3103C103.237 41.6503 103.745 42.1234 104.088 42.7591C104.432 43.3949 104.596 44.1193 104.596 44.9768C104.596 45.8195 104.432 46.5587 104.088 47.1796ZM102.625 47.3423C103.207 46.7805 103.491 45.9969 103.491 44.9768C103.491 43.9567 103.207 43.1731 102.625 42.6113C102.042 42.0495 101.206 41.7686 100.101 41.7686H98.5928V48.185H100.101C101.191 48.185 102.042 47.9041 102.625 47.3423Z" fill="#FF5196"/>
<path d="M110.151 40.8076V49.146H109.061V40.8076H110.151Z" fill="#FF5196"/>
<path d="M120.845 41.2511C121.472 41.6207 121.965 42.1234 122.323 42.7739C122.682 43.4244 122.861 44.1636 122.861 44.9768C122.861 45.7899 122.682 46.5291 122.323 47.1796C121.965 47.8301 121.472 48.3328 120.845 48.7024C120.218 49.072 119.516 49.2494 118.739 49.2494C117.963 49.2494 117.246 49.072 116.619 48.7024C115.992 48.3328 115.484 47.8301 115.125 47.1796C114.767 46.5291 114.588 45.7899 114.588 44.9768C114.588 44.1636 114.767 43.4244 115.125 42.7739C115.484 42.1234 115.977 41.6207 116.619 41.2511C117.261 40.8815 117.963 40.7041 118.739 40.7041C119.516 40.7041 120.218 40.8815 120.845 41.2511ZM117.171 42.1086C116.708 42.3747 116.35 42.7443 116.096 43.247C115.842 43.7349 115.708 44.3115 115.708 44.9768C115.708 45.6273 115.842 46.2039 116.096 46.7065C116.35 47.2092 116.708 47.5788 117.171 47.8449C117.634 48.111 118.142 48.2441 118.724 48.2441C119.292 48.2441 119.815 48.111 120.278 47.8449C120.741 47.5788 121.099 47.1944 121.353 46.7065C121.607 46.2186 121.741 45.642 121.741 44.9915C121.741 44.3262 121.607 43.7497 121.353 43.2618C121.099 42.7739 120.741 42.3895 120.278 42.1234C119.815 41.8573 119.307 41.7242 118.724 41.7242C118.157 41.7094 117.634 41.8425 117.171 42.1086Z" fill="#FF5196"/>
</svg>
