<svg width="168" height="65" viewBox="0 0 168 65" fill="none" xmlns="http://www.w3.org/2000/svg">
<path d="M11.812 18.1295C11.6879 17.8316 11.5203 17.453 11.3093 16.9937C11.1107 16.5344 10.8934 16.0379 10.6576 15.5041C10.4217 14.9703 10.1672 14.4241 9.89416 13.8655C9.63348 13.2945 9.38522 12.7608 9.14936 12.2642C8.91351 11.7553 8.69007 11.3022 8.47905 10.905C8.28044 10.5078 8.11907 10.2036 7.99493 9.99261C7.85839 11.4574 7.74667 13.0463 7.65978 14.7593C7.57288 16.4599 7.4984 18.1791 7.43634 19.917H5.66745C5.7171 18.7998 5.77296 17.6764 5.83503 16.5468C5.8971 15.4048 5.96537 14.2876 6.03985 13.1952C6.12674 12.0904 6.21363 11.0167 6.30053 9.97399C6.39983 8.93128 6.50535 7.94443 6.61706 7.01343H8.19975C8.53491 7.55962 8.89489 8.2051 9.2797 8.9499C9.66451 9.69469 10.0493 10.4767 10.4341 11.296C10.8189 12.1029 11.1913 12.9159 11.5513 13.7352C11.9113 14.5421 12.2403 15.2806 12.5382 15.951C12.8361 15.2806 13.165 14.5421 13.525 13.7352C13.885 12.9159 14.2574 12.1029 14.6422 11.296C15.027 10.4767 15.4118 9.69469 15.7967 8.9499C16.1815 8.2051 16.5414 7.55962 16.8766 7.01343H18.4593C18.8813 11.1719 19.1979 15.4731 19.4089 19.917H17.64C17.578 18.1791 17.5035 16.4599 17.4166 14.7593C17.3297 13.0463 17.218 11.4574 17.0814 9.99261C16.9573 10.2036 16.7897 10.5078 16.5787 10.905C16.3801 11.3022 16.1628 11.7553 15.927 12.2642C15.6911 12.7608 15.4367 13.2945 15.1636 13.8655C14.9029 14.4241 14.6546 14.9703 14.4188 15.5041C14.1829 16.0379 13.9595 16.5344 13.7485 16.9937C13.5499 17.453 13.3885 17.8316 13.2644 18.1295H11.812ZM30.6757 15.0758C30.6757 15.8455 30.5639 16.5406 30.3405 17.1613C30.1171 17.7819 29.8005 18.3157 29.3909 18.7626C28.9937 19.2094 28.5158 19.557 27.9572 19.8053C27.3986 20.0411 26.7903 20.1591 26.1324 20.1591C25.4745 20.1591 24.8663 20.0411 24.3077 19.8053C23.7491 19.557 23.265 19.2094 22.8553 18.7626C22.4581 18.3157 22.1478 17.7819 21.9243 17.1613C21.7009 16.5406 21.5892 15.8455 21.5892 15.0758C21.5892 14.3186 21.7009 13.6297 21.9243 13.009C22.1478 12.376 22.4581 11.836 22.8553 11.3891C23.265 10.9422 23.7491 10.6009 24.3077 10.365C24.8663 10.1167 25.4745 9.99261 26.1324 9.99261C26.7903 9.99261 27.3986 10.1167 27.9572 10.365C28.5158 10.6009 28.9937 10.9422 29.3909 11.3891C29.8005 11.836 30.1171 12.376 30.3405 13.009C30.5639 13.6297 30.6757 14.3186 30.6757 15.0758ZM28.8695 15.0758C28.8695 13.9835 28.6213 13.1207 28.1247 12.4877C27.6406 11.8422 26.9765 11.5194 26.1324 11.5194C25.2883 11.5194 24.618 11.8422 24.1215 12.4877C23.6374 13.1207 23.3953 13.9835 23.3953 15.0758C23.3953 16.1682 23.6374 17.0371 24.1215 17.6826C24.618 18.3157 25.2883 18.6322 26.1324 18.6322C26.9765 18.6322 27.6406 18.3157 28.1247 17.6826C28.6213 17.0371 28.8695 16.1682 28.8695 15.0758ZM39.3682 12.2829C39.1572 12.1091 38.8531 11.9415 38.4558 11.7801C38.0586 11.6187 37.6242 11.5381 37.1525 11.5381C36.6559 11.5381 36.2277 11.6312 35.8677 11.8174C35.5201 11.9911 35.2346 12.2394 35.0112 12.5622C34.7877 12.8725 34.6264 13.2449 34.5271 13.6793C34.4278 14.1138 34.3781 14.5793 34.3781 15.0758C34.3781 16.2054 34.6574 17.0806 35.216 17.7012C35.7746 18.3095 36.5194 18.6136 37.4504 18.6136C37.9221 18.6136 38.3131 18.595 38.6234 18.5577C38.9462 18.5081 39.1944 18.4584 39.3682 18.4088V12.2829ZM39.3682 5.7659L41.0999 5.46799V19.6377C40.7026 19.7494 40.1937 19.8611 39.573 19.9729C38.9524 20.0846 38.2386 20.1404 37.4318 20.1404C36.687 20.1404 36.0166 20.0225 35.4208 19.7867C34.825 19.5508 34.316 19.2156 33.894 18.7812C33.4719 18.3467 33.143 17.8192 32.9071 17.1985C32.6837 16.5654 32.572 15.8579 32.572 15.0758C32.572 14.331 32.6651 13.6483 32.8513 13.0276C33.0499 12.407 33.3354 11.8732 33.7078 11.4263C34.0802 10.9795 34.5333 10.6319 35.067 10.3836C35.6132 10.1354 36.2339 10.0112 36.929 10.0112C37.4876 10.0112 37.9779 10.0857 38.4 10.2347C38.8345 10.3836 39.1572 10.5264 39.3682 10.6629V5.7659ZM43.5366 15.0945C43.5366 14.2379 43.6607 13.4931 43.909 12.8601C44.1573 12.2146 44.4862 11.6808 44.8958 11.2588C45.3055 10.8367 45.7772 10.5202 46.311 10.3091C46.8447 10.0981 47.3909 9.99261 47.9495 9.99261C49.2529 9.99261 50.2522 10.4022 50.9473 11.2215C51.6424 12.0284 51.99 13.2635 51.99 14.9269C51.99 15.0014 51.99 15.1007 51.99 15.2248C51.99 15.3365 51.9838 15.442 51.9714 15.5413H45.3427C45.4172 16.5468 45.7089 17.3102 46.2179 17.8316C46.7268 18.3529 47.5212 18.6136 48.6012 18.6136C49.2094 18.6136 49.7184 18.5639 50.128 18.4646C50.5501 18.3529 50.8666 18.2474 51.0776 18.1481L51.3197 19.6005C51.1087 19.7122 50.7363 19.8301 50.2025 19.9542C49.6811 20.0784 49.0853 20.1404 48.415 20.1404C47.5709 20.1404 46.8385 20.0163 46.2179 19.768C45.6096 19.5074 45.1069 19.1536 44.7096 18.7067C44.3124 18.2598 44.0145 17.7323 43.8159 17.124C43.6297 16.5034 43.5366 15.8268 43.5366 15.0945ZM50.1839 14.1448C50.1963 13.3628 49.9977 12.7235 49.588 12.227C49.1908 11.7181 48.6384 11.4636 47.9309 11.4636C47.5337 11.4636 47.1799 11.5443 46.8695 11.7056C46.5716 11.8546 46.3172 12.0532 46.1061 12.3015C45.8951 12.5497 45.7275 12.8352 45.6034 13.158C45.4917 13.4807 45.4172 13.8097 45.38 14.1448H50.1839ZM58.0525 10.0299C58.2015 10.0299 58.3691 10.0423 58.5553 10.0671C58.7539 10.0795 58.9463 10.1043 59.1325 10.1416C59.3187 10.1664 59.4862 10.1974 59.6352 10.2347C59.7966 10.2595 59.9145 10.2843 59.989 10.3091L59.6911 11.8174C59.5545 11.7677 59.3249 11.7118 59.0021 11.6498C58.6918 11.5753 58.2884 11.5381 57.7918 11.5381C57.4691 11.5381 57.1463 11.5753 56.8236 11.6498C56.5133 11.7118 56.3085 11.7553 56.2091 11.7801V19.917H54.4775V10.6443C54.8871 10.4953 55.3961 10.3588 56.0043 10.2347C56.6126 10.0981 57.2953 10.0299 58.0525 10.0299ZM61.66 10.514C62.0572 10.4147 62.5848 10.3091 63.2427 10.1974C63.9006 10.0857 64.6578 10.0299 65.5143 10.0299C66.2839 10.0299 66.9232 10.1416 67.4321 10.365C67.9411 10.576 68.3445 10.8802 68.6424 11.2774C68.9527 11.6622 69.17 12.1277 69.2941 12.6739C69.4182 13.2201 69.4803 13.8221 69.4803 14.48V19.917H67.7487V14.8524C67.7487 14.2566 67.7052 13.7476 67.6183 13.3256C67.5438 12.9035 67.4135 12.5622 67.2273 12.3015C67.0411 12.0408 66.7928 11.8546 66.4825 11.7429C66.1722 11.6187 65.7874 11.5567 65.3281 11.5567C65.1419 11.5567 64.9495 11.5629 64.7509 11.5753C64.5523 11.5877 64.3598 11.6063 64.1736 11.6312C63.9999 11.6436 63.8385 11.6622 63.6895 11.687C63.553 11.7118 63.4537 11.7305 63.3916 11.7429V19.917H61.66V10.514Z" fill="#263238"/>
<path d="M16.23 54.4453C11.7346 54.4453 8.30322 53.1951 5.93584 50.6947C3.59506 48.1944 2.42467 44.6433 2.42467 40.0415C2.42467 37.7539 2.78377 35.7191 3.50196 33.9369C4.22016 32.1281 5.20435 30.6119 6.45454 29.3883C7.70473 28.1381 9.19432 27.1938 10.9233 26.5554C12.6523 25.917 14.5276 25.5978 16.5492 25.5978C17.7195 25.5978 18.7835 25.6909 19.7411 25.8771C20.6987 26.0367 21.5366 26.2362 22.2548 26.4756C22.973 26.6884 23.5715 26.9145 24.0503 27.1539C24.5291 27.3933 24.8749 27.5795 25.0877 27.7125L23.2922 32.7399C22.441 32.2877 21.4435 31.902 20.2997 31.5828C19.1825 31.2636 17.9057 31.104 16.4694 31.104C15.5118 31.104 14.5675 31.2636 13.6365 31.5828C12.7321 31.902 11.9208 32.4207 11.2026 33.1389C10.511 33.8305 9.95241 34.7349 9.52681 35.8521C9.10122 36.9693 8.88842 38.3258 8.88842 39.9218C8.88842 41.1986 9.02142 42.3956 9.28742 43.5128C9.58001 44.6034 10.0322 45.5477 10.644 46.3457C11.2824 47.1437 12.107 47.7821 13.1178 48.2609C14.1286 48.7131 15.3522 48.9392 16.7886 48.9392C17.6929 48.9392 18.5042 48.886 19.2224 48.7796C19.9406 48.6732 20.579 48.5535 21.1376 48.4205C21.6962 48.2609 22.1883 48.088 22.6139 47.9018C23.0395 47.7156 23.4252 47.5427 23.771 47.3831L25.4867 52.3705C24.6089 52.9025 23.372 53.3813 21.776 53.8069C20.18 54.2325 18.3313 54.4453 16.23 54.4453ZM41.7433 38.1662C41.2113 38.0332 40.5862 37.9002 39.868 37.7672C39.1498 37.6076 38.3784 37.5279 37.5538 37.5279C37.1814 37.5279 36.7292 37.5677 36.1973 37.6475C35.6919 37.7007 35.3062 37.7672 35.0402 37.847V53.8867H29.0951V34.0167C30.1591 33.6443 31.4093 33.2985 32.8457 32.9793C34.3087 32.6335 35.9313 32.4606 37.7134 32.4606C38.0326 32.4606 38.4183 32.4872 38.8705 32.5404C39.3227 32.567 39.7749 32.6202 40.2271 32.7C40.6793 32.7532 41.1315 32.833 41.5837 32.9394C42.0359 33.0192 42.4216 33.1256 42.7408 33.2586L41.7433 38.1662ZM65.8078 32.8995C64.6108 36.9427 63.3606 40.7331 62.0572 44.2709C60.7538 47.8087 59.3308 51.24 57.788 54.565C57.2294 55.762 56.6708 56.7728 56.1122 57.5974C55.5536 58.4486 54.9418 59.1402 54.2768 59.6722C53.6118 60.2308 52.8537 60.6298 52.0025 60.8692C51.1779 61.1352 50.207 61.2682 49.0898 61.2682C48.1588 61.2682 47.2944 61.1751 46.4964 60.9889C45.725 60.8293 45.0866 60.6431 44.5812 60.4303L45.6186 55.6822C46.2304 55.895 46.7757 56.0413 47.2545 56.1211C47.7332 56.2009 48.2386 56.2408 48.7706 56.2408C49.8346 56.2408 50.6459 55.9482 51.2045 55.363C51.7897 54.8044 52.2818 54.0197 52.6808 53.0089C51.3242 50.3489 49.9676 47.3698 48.611 44.0714C47.2545 40.7464 45.9777 37.0225 44.7807 32.8995H51.0848C51.3508 33.9369 51.6567 35.0674 52.0025 36.291C52.3749 37.488 52.7606 38.7115 53.1596 39.9617C53.5586 41.1853 53.9576 42.3823 54.3566 43.5527C54.7822 44.7231 55.1812 45.7871 55.5536 46.7447C55.8994 45.7871 56.2585 44.7231 56.6309 43.5527C57.0033 42.3823 57.3624 41.1853 57.7082 39.9617C58.0806 38.7115 58.4264 37.488 58.7456 36.291C59.0914 35.0674 59.3973 33.9369 59.6633 32.8995H65.8078ZM82.441 43.5527C82.441 41.7173 82.0287 40.2543 81.2041 39.1637C80.3795 38.0465 79.1559 37.488 77.5333 37.488C77.0013 37.488 76.5092 37.5146 76.057 37.5678C75.6048 37.5943 75.2324 37.6342 74.9398 37.6874V48.4205C75.3122 48.6599 75.791 48.8594 76.3762 49.019C76.988 49.1786 77.5998 49.2584 78.2116 49.2584C81.0312 49.2584 82.441 47.3565 82.441 43.5527ZM88.5057 43.3931C88.5057 45.0157 88.3062 46.492 87.9072 47.822C87.5082 49.152 86.923 50.2957 86.1517 51.2533C85.3803 52.2109 84.4227 52.9557 83.2789 53.4877C82.1351 54.0197 80.8184 54.2857 79.3288 54.2857C78.5042 54.2857 77.7328 54.2059 77.0146 54.0463C76.2964 53.8867 75.6048 53.6606 74.9398 53.368V61.2682H68.9948V33.6177C69.5268 33.4581 70.1386 33.3118 70.8302 33.1788C71.5218 33.0192 72.24 32.8862 72.9848 32.7798C73.7562 32.6734 74.5275 32.5936 75.2989 32.5404C76.0969 32.4606 76.855 32.4207 77.5732 32.4207C79.3022 32.4207 80.845 32.6867 82.2016 33.2187C83.5582 33.7241 84.702 34.4556 85.633 35.4132C86.5639 36.3442 87.2688 37.488 87.7476 38.8445C88.253 40.2011 88.5057 41.7173 88.5057 43.3931ZM92.8754 27.6726L98.8204 26.715V32.8995H105.962V37.847H98.8204V45.2285C98.8204 46.4787 99.0332 47.4762 99.4588 48.221C99.911 48.9658 100.802 49.3382 102.132 49.3382C102.77 49.3382 103.422 49.285 104.087 49.1786C104.779 49.0456 105.404 48.8727 105.962 48.6599L106.8 53.2882C106.082 53.5808 105.284 53.8335 104.406 54.0463C103.529 54.2591 102.451 54.3655 101.175 54.3655C99.5519 54.3655 98.2086 54.1527 97.1446 53.7271C96.0806 53.2749 95.2295 52.6631 94.5911 51.8917C93.9527 51.0937 93.5005 50.1361 93.2345 49.019C92.9951 47.9018 92.8754 46.6649 92.8754 45.3083V27.6726ZM129.655 43.3532C129.655 45.0024 129.416 46.5186 128.937 47.9018C128.458 49.2584 127.766 50.4287 126.862 51.4129C125.958 52.3705 124.867 53.1153 123.59 53.6473C122.34 54.1793 120.93 54.4453 119.361 54.4453C117.818 54.4453 116.408 54.1793 115.132 53.6473C113.881 53.1153 112.804 52.3705 111.9 51.4129C110.995 50.4287 110.29 49.2584 109.785 47.9018C109.28 46.5186 109.027 45.0024 109.027 43.3532C109.027 41.704 109.28 40.2011 109.785 38.8445C110.317 37.488 111.035 36.3309 111.94 35.3733C112.871 34.4157 113.961 33.6709 115.211 33.1389C116.488 32.6069 117.871 32.3409 119.361 32.3409C120.877 32.3409 122.26 32.6069 123.511 33.1389C124.787 33.6709 125.878 34.4157 126.782 35.3733C127.687 36.3309 128.392 37.488 128.897 38.8445C129.402 40.2011 129.655 41.704 129.655 43.3532ZM123.59 43.3532C123.59 41.5178 123.218 40.0814 122.473 39.044C121.755 37.98 120.718 37.4481 119.361 37.4481C118.004 37.4481 116.954 37.98 116.209 39.044C115.464 40.0814 115.092 41.5178 115.092 43.3532C115.092 45.1886 115.464 46.6516 116.209 47.7422C116.954 48.8062 118.004 49.3382 119.361 49.3382C120.718 49.3382 121.755 48.8062 122.473 47.7422C123.218 46.6516 123.59 45.1886 123.59 43.3532Z" fill="#263238"/>
<path d="M152.048 58.1064V40.8917L138.748 28.8467V58.1064H152.048Z" fill="#27CAEA"/>
<path d="M167.944 57.6891V40.7199L155.102 28.8467V57.6891H167.944Z" fill="#FFB04E"/>
</svg>
