<svg width="172" height="46" viewBox="0 0 172 46" fill="none" xmlns="http://www.w3.org/2000/svg">
<path d="M36.9175 45.1366H8.86095C4.25031 45.1366 0.513672 41.4373 0.513672 36.8728V9.09682C0.513672 4.53229 4.25031 0.833008 8.86095 0.833008H36.9175C41.5281 0.833008 45.2647 4.53229 45.2647 9.09682V36.8728C45.2647 41.4373 41.5281 45.1366 36.9175 45.1366Z" fill="#7782FF"/>
<path d="M30.9521 23.3928C31.7501 24.3835 32.1555 25.5371 32.1555 26.8413C32.1555 28.7599 31.5095 30.2647 30.2175 31.3306C28.9255 32.3965 27.0762 32.9482 24.6695 32.9482H14.1562V10.5645H24.4162C26.7215 10.5645 28.4948 11.0661 29.7488 12.0567C31.0028 13.0474 31.6361 14.4644 31.6361 16.2952C31.6361 17.6495 31.2688 18.7656 30.5468 19.6684C29.8248 20.5713 28.8748 21.1482 27.6968 21.424C29.0775 21.7501 30.1541 22.4021 30.9521 23.3928ZM19.6155 19.7186H23.2002C25.1002 19.7186 26.0502 18.9161 26.0502 17.3109C26.0502 15.7058 25.0748 14.9033 23.1369 14.9033H19.6155V19.7186ZM26.5568 26.0889C26.5568 25.2863 26.2908 24.6593 25.7589 24.2079C25.2269 23.7565 24.4668 23.5307 23.4915 23.5307H19.6282V28.5593H23.5295C25.5435 28.5467 26.5568 27.7316 26.5568 26.0889Z" fill="white"/>
<path d="M71.1924 32.9482L66.3031 24.4963H65.0618V32.9482H59.5898V10.5645H68.9251C70.7111 10.5645 72.2311 10.8654 73.4598 11.4799C74.7011 12.0943 75.6257 12.9345 76.2464 14.0004C76.8671 15.0663 77.1711 16.2827 77.1711 17.6621C77.1711 19.2922 76.7151 20.6716 75.8157 21.8128C74.9038 22.9539 73.5991 23.7314 71.8638 24.1577L77.2344 32.9608H71.1924V32.9482ZM65.0618 20.797H68.4438C69.5331 20.797 70.3311 20.5588 70.8378 20.0823C71.3444 19.6057 71.6104 18.9035 71.6104 17.9756C71.6104 17.0852 71.3444 16.3955 70.8251 15.8814C70.3058 15.3798 69.5078 15.1165 68.4438 15.1165H65.0618V20.797Z" fill="#263238"/>
<path d="M101.922 28.873H93.4477L92.0417 32.961H86.291L94.575 10.7402H100.87L109.154 32.961H103.34L101.922 28.873ZM100.516 24.7473L97.7036 16.5211L94.8536 24.7473H100.516Z" fill="#263238"/>
<path d="M139.339 32.9482H133.867L124.722 19.2045V32.9482H119.25V10.5645H124.722L133.867 24.4336V10.5645H139.339V32.9482Z" fill="#263238"/>
<path d="M170.017 27.5562C169.067 29.2491 167.699 30.5783 165.925 31.5314C164.139 32.4844 162.049 32.9609 159.643 32.9609H151.105V10.5771H159.643C162.075 10.5771 164.177 11.0411 165.938 11.9691C167.711 12.897 169.067 14.2012 170.017 15.8941C170.967 17.587 171.435 19.5181 171.435 21.7251C171.435 23.9071 170.954 25.8508 170.017 27.5562ZM164.127 26.4276C165.305 25.3116 165.9 23.7315 165.9 21.7126C165.9 19.6811 165.305 18.1136 164.127 16.9976C162.949 15.8815 161.289 15.3172 159.149 15.3172H156.565V28.108H159.149C161.289 28.108 162.949 27.5562 164.127 26.4276Z" fill="#263238"/>
</svg>
